<?xml version="1.0" standalone="no"?>
<!DOCTYPE svg PUBLIC "-//W3C//DTD SVG 20010904//EN"
 "http://www.w3.org/TR/2001/REC-SVG-20010904/DTD/svg10.dtd">
<svg version="1.0" xmlns="http://www.w3.org/2000/svg"
 width="230.000000pt" height="234.000000pt" viewBox="0 0 230.000000 234.000000"
 preserveAspectRatio="xMidYMid meet">

<g transform="translate(0.000000,234.000000) scale(0.100000,-0.100000)"
fill="#000000" stroke="none">
<path d="M453 1903 l-153 -4 0 -103 0 -104 63 -4 c34 -2 414 -4 844 -4 l782
-1 3 108 3 109 -30 0 c-16 0 -329 1 -695 3 -366 2 -734 2 -817 0z"/>
<path d="M300 1160 l0 -100 845 0 845 0 0 100 0 100 -845 0 -845 0 0 -100z"/>
<path d="M300 520 l0 -100 848 0 847 0 -3 100 -3 100 -845 0 -844 0 0 -100z"/>
</g>
</svg>
