<svg width="386.99999999999994" height="58.00000000000001" xmlns="http://www.w3.org/2000/svg" xml:space="preserve" version="1.1">

 <g>
  <title>Layer 1</title>
  <g id="nypost-logo">
   <path id="svg_1" d="m260.122,1.337l-15.075,0l-6.11,4.582l1.05,-4.678l-14.924,0l-2.41,2.142c-0.606,-0.352 -1.85,-1.077 -2.49,-1.503c-0.95,-0.528 -3.063,-0.543 -3.302,-0.543l-23.176,0l-3.172,2.467c-0.807,-0.734 -2.848,-2.384 -5.393,-2.924c-4.6,-1.087 -5.797,-0.892 -7.286,-0.818c-0.452,0.023 -0.916,0.046 -1.453,0.046c-3.27,0 -6.803,1.116 -8.413,1.693l0.063,-0.562l-15.117,0.1l-6.363,5.09l-0.17,-5.09l-14.734,0l-3.33,2.462l0.932,-2.463l-13.205,0l-5.35,3.845l-0.166,-3.845l-13.216,0l-4.173,3.11l-0.33,-3.205l-35.647,0l-0.36,0.19l0.098,-0.197l-13.5,0.103l-4.24,3.08l-0.585,-3.176l-14.198,0l-11.65,9.32l-12.727,46.767l12.562,0l6.574,-4.845l0.692,4.845l12.24,0l1.773,-1.495l0.518,0.048l0.87,1.447l24.245,0l5.368,-3.927l-0.64,3.927l12.197,0l7.436,-5.205l-1.24,5.205l12.445,0l12.462,-9.37l14.91,-30.543l2.317,19.816l-5.66,20.097l13.71,0l8.96,-6.878c0.867,1.706 3.543,6.14 8.242,6.868c1.536,0.288 4.044,0.383 4.15,0.387l0.02,0c1.903,0 3.073,-0.017 5.025,-0.388c2.295,-0.436 3.55,-0.97 5.632,-1.86l0.16,-0.067c2.095,-0.895 4.745,-2.516 6.233,-3.466l-1.098,5.403l12.977,0l4.963,-3.412l-0.853,3.412l27.297,0l5.95,-4.288l1.4,4.288l15.082,0l11.873,-9.52l-5.408,-25.333l16.735,-21.14l0.003,0.001z" fill="#211F20"/>
   <path id="svg_2" d="m358.936,1.243l-2.583,1.78c-0.646,-0.395 -2.13,-1.276 -3.27,-1.738c-3.04,-1.23 -5.054,-1.317 -8.26,-1.27c-3.89,0.06 -6.575,0.467 -10.473,2.523c-1.724,0.91 -3.816,2.65 -4.783,3.49c-0.648,-1.1 -2.108,-3.305 -3.793,-4.07c-3.877,-1.79 -6.352,-1.787 -10.376,-1.66c-3.702,0.118 -5.85,0.57 -9.183,1.933c-2.318,0.95 -5.233,2.99 -6.413,3.847c-0.458,-0.806 -1.32,-2.257 -1.998,-3c-0.956,-1.275 -3.472,-1.772 -3.756,-1.824l-23.473,-0.01l-10.895,8.656l-13.206,47.43l13.426,0l12.02,-9.21l1.626,-4.97c0.74,0.013 2.35,0.02 3.53,-0.105c0.86,-0.093 1.977,-0.318 2.73,-0.483c-0.28,1.803 -0.738,6.004 0.582,8.594c2.47,4.844 6.862,5.83 11.237,6.173c1.008,0.087 1.903,0.13 2.735,0.13c2.982,0 5.21,-0.555 8.275,-1.576c3.104,-1.035 7.08,-3.61 8.403,-4.5c0.737,0.92 2.563,3.07 4.28,4.073c2.443,1.43 4.23,1.604 6.944,1.87c0.972,0.097 1.838,0.143 2.653,0.143c2.828,0 5.13,-0.537 8.5,-1.98c3.238,-1.367 8.052,-4.45 10.305,-5.94l-1.892,7.404l12.745,0l11.84,-9.027l8.14,-28.485l9.744,-8.326l2.7,-9.87l-28.06,0l-0.001,-0.002z" fill="#231F20"/>
   <path id="svg_3" d="m54.715,2.85l-9.282,0l-6.015,19.87l-2.188,-19.87l-11.85,0l-11.58,43.08l-0.063,0.24l9.09,0l6.773,-23.25l2.563,23.25l10.15,0l12.333,-43.08m62.882,-0.24l-10.188,20.56l1.982,-20.35l0.02,-0.207l-10.165,0l-9.61,20.13l1.973,-19.923l0.02,-0.21l-33.455,0l-11.767,43.08l-0.065,0.24l22.892,0l2.78,-7.946l-12.69,0l2.92,-10.214l11.535,0l2.385,-7.946l-11.725,0l2.907,-9.08l12.333,0l-2.445,34.983l-0.014,0.202l10.349,0l10.928,-23.316l-2.368,23.317l9.976,0l20.86,-43.047l0.13,-0.272m58.804,22.169l0.096,0.015l3.096,-10.834l-0.052,0c0.04,-0.197 0.13,-0.543 0.216,-0.88c0.427,-1.666 1.223,-4.765 0.81,-6.347c-0.938,-4.38 -3.998,-5.2 -5.257,-5.35c-2.88,-0.54 -3.653,-0.546 -5.718,-0.566l-0.652,-0.006c-1.444,-0.014 -2.37,-0.027 -3.908,0.195c-2.304,0.332 -3.596,0.63 -5.636,1.625c-1.353,0.66 -2.082,1.13 -3.254,2.105c-2.145,1.786 -4.304,5.567 -4.412,5.77l-7.57,27.82c-0.03,0.146 -0.73,3.642 0.405,5.435c0.62,0.98 1.273,1.38 2.176,1.93l0.344,0.21c1.924,1.194 3.345,1.394 5.497,1.694l0.252,0.036c1.028,0.145 1.897,0.212 2.735,0.212c1.258,0 2.44,-0.154 3.943,-0.402c2.072,-0.343 3.342,-0.582 5.347,-1.528c1.57,-0.74 2.428,-1.3 3.824,-2.486c1.6,-1.36 3.68,-4.134 3.84,-4.634l0.004,0c1.057,-3.774 3.83,-13.643 3.96,-13.97l-0.084,-0.04l-0.002,-0.004zm36.605,-18.244c-0.23,-0.89 -0.492,-1.39 -1.08,-2.063c-0.608,-0.7 -1.1,-0.975 -1.853,-1.368c-0.43,-0.225 -1.13,-0.473 -1.16,-0.483l-23.473,-0.01l-11.769,43.078l-0.065,0.24l10.604,0l5.107,-17.404l4.364,-0.003c0.358,0.067 1.338,0.35 1.566,0.84c0.155,0.333 0.044,0.977 -0.012,1.196l-3.972,15.132l-0.063,0.237l11.17,0l4.577,-16.21c0.03,-0.093 0.705,-2.266 -0.02,-3.378c-0.358,-0.546 -0.718,-0.772 -1.215,-1.085l-0.168,-0.106c-0.38,-0.24 -0.92,-0.468 -1.3,-0.614c0.564,-0.255 1.56,-0.723 2.243,-1.145l0.29,-0.177c0.688,-0.42 1.184,-0.722 1.825,-1.363c0.413,-0.412 0.94,-1.126 0.964,-1.156l3.44,-11.622c0.013,-0.064 0.248,-1.58 0,-2.536m69.77,21.914c0.54,-0.714 0.777,-1.296 1.054,-1.97c0.11,-0.277 0.23,-0.572 0.384,-0.9c2.527,-5.47 4.347,-14.895 4.36,-14.968c0.022,-0.076 0.58,-1.87 0.19,-3.034c-0.07,-0.29 -0.092,-0.56 -0.108,-0.822c-0.03,-0.4 -0.06,-0.816 -0.28,-1.292c-0.36,-0.784 -0.757,-1.147 -1.373,-1.673c-0.465,-0.397 -0.836,-0.573 -1.268,-0.777c-0.222,-0.104 -0.463,-0.22 -0.748,-0.378l-0.044,-0.024l-22.42,0l-12.05,43.08l-0.067,0.24l10.415,0l3.972,-13.047c0.695,0.03 3.72,0.162 6.293,0.162c1.72,0 2.91,-0.058 3.533,-0.172c1.65,-0.29 2.717,-0.653 4.253,-1.456c1.652,-0.86 2.744,-1.43 3.905,-2.966m35.689,-21.063c-0.054,-0.223 -0.1,-0.445 -0.146,-0.663c-0.222,-1.064 -0.43,-2.07 -1.372,-2.584c-1.145,-0.763 -2.05,-1.366 -3.52,-1.9c-1.92,-0.695 -3.192,-0.757 -5.118,-0.85l-0.235,-0.01c-0.685,-0.035 -1.237,-0.05 -1.74,-0.05c-1.37,0 -2.54,0.12 -4.168,0.43c-1.71,0.326 -2.685,0.57 -4.294,1.24c-1.924,0.804 -3.07,1.408 -4.778,2.87c-1.213,1.035 -2.707,2.972 -2.77,3.054l-8.457,29.23c-0.015,0.152 -0.342,3.772 0.882,5.607c0.74,1.112 1.447,1.557 2.517,2.23c1.766,1.113 3.133,1.29 5.022,1.54c0.233,0.03 0.476,0.06 0.727,0.096c1.21,0.166 2.154,0.24 3.063,0.24c1.064,0 2.11,-0.098 3.612,-0.336c2.195,-0.348 3.438,-0.61 5.35,-1.53c1.622,-0.778 2.52,-1.383 3.827,-2.583c1.546,-1.418 3.306,-4.13 3.455,-4.625l0.002,0c1.107,-3.695 4.008,-13.357 4.15,-13.687l-0.09,-0.045l0.103,0.014l3.285,-11.59l-0.052,0c0.032,-0.142 0.09,-0.358 0.147,-0.57c0.356,-1.317 1.015,-3.77 0.595,-5.526" fill="#FFF"/>
   <path id="svg_4" d="m316.247,10.71c-0.237,-0.474 -1.234,-0.728 -2.03,-0.857c-0.255,-0.042 -0.506,-0.063 -0.748,-0.063c-1.02,0 -1.826,0.362 -2.774,0.836c-0.807,0.404 -1.567,2.102 -1.61,2.197l-6.622,22.712c-0.025,0.11 -0.583,2.71 0.97,3.434c0.71,0.267 1.494,0.512 2.392,0.512c0.175,0 0.352,-0.01 0.53,-0.028c0.84,-0.096 1.527,-0.452 2.08,-0.738l0.26,-0.134c0.826,-0.445 1.134,-1.34 1.318,-1.876c0.033,-0.095 0.07,-0.206 0.1,-0.278l0.007,0c0.198,0 0.266,0 5.67,-19.72l0.837,-3.368c0.022,-0.05 0.604,-1.254 -0.38,-2.63" fill="#231F20"/>
   <path id="svg_5" d="m145.605,17.765l-0.92,-14.913l-10.8,0l3.43,25.523l-4.783,17.795l10.414,0l4.95,-17.133l17.774,-26.185l-10.675,0m79.005,13.654l3.824,-13.655l-10.984,0l-12.713,43.077l-0.072,0.242l11.46,0l5.583,-18.4l3.358,18.245l0.027,0.154l12.025,0l-4.946,-23.977l15.08,-19.036l0.24,-0.306l-10.5,0m113.625,0l-2.088,7.757l6.71,0l-9.956,35.322l-0.068,0.24l10.325,0l10.025,-35.185l7.188,0l2.31,-7.892l0.07,-0.242m-35.089,22.406c-0.732,-1.103 -1.394,-1.758 -2.156,-2.516c-0.334,-0.33 -0.69,-0.683 -1.08,-1.102c-0.59,-0.635 -1.1,-1.127 -1.587,-1.6c-0.647,-0.63 -1.258,-1.222 -2,-2.083c-0.272,-0.316 -0.528,-0.573 -0.773,-0.823c-0.544,-0.55 -1.013,-1.025 -1.377,-1.882c-0.44,-1.04 -0.73,-1.725 -0.55,-2.816c0.11,-0.665 0.194,-1.063 0.613,-1.51c0.32,-0.34 0.626,-0.42 1.086,-0.542l0.245,-0.066c0.613,-0.172 0.95,-0.256 1.533,-0.184c0.68,0.085 1.08,0.287 1.593,0.797c0.415,0.413 0.586,0.712 0.708,1.232c0.102,0.445 0.05,0.763 -0.02,1.164c-0.028,0.175 -0.06,0.36 -0.08,0.572l-0.007,0.06c-0.067,0.694 -0.108,1.113 -0.27,1.807c-0.157,0.66 -0.557,1.666 -0.56,1.676l-0.104,0.26l10.446,0l0.04,-0.138c0.006,-0.024 0.688,-2.433 1.042,-3.98c0.102,-0.442 0.208,-0.823 0.31,-1.182c0.237,-0.842 0.442,-1.57 0.453,-2.643l0,-0.13c0.016,-1.618 0.026,-2.786 -0.882,-4.23c-0.64,-1.015 -1.23,-1.498 -2.232,-2.138c-1.007,-0.644 -1.726,-0.83 -2.812,-1.115l-0.174,-0.045c-1.187,-0.31 -1.934,-0.366 -3.065,-0.45l-0.795,-0.06c-0.802,-0.064 -1.435,-0.114 -2.106,-0.114c-0.636,0 -1.258,0.047 -1.958,0.147c-0.626,0.09 -1.077,0.21 -1.553,0.338c-0.28,0.076 -0.57,0.154 -0.92,0.233c-0.424,0.095 -0.784,0.153 -1.134,0.208c-0.606,0.098 -1.18,0.19 -1.92,0.463c-1.177,0.436 -1.84,0.898 -2.76,1.54l-0.402,0.278c-1.027,0.71 -1.608,1.14 -2.484,2.01l-0.236,0.23c-0.678,0.67 -1.168,1.15 -1.688,2.08c-0.45,0.808 -0.612,1.376 -0.838,2.16l-0.124,0.433c-0.29,0.997 -0.438,1.518 -0.573,2.486l-0.053,0.377c-0.144,0.99 -0.246,1.708 -0.038,2.805c0.15,0.807 0.375,1.28 0.685,1.936l0.178,0.378c0.627,1.353 1.286,2.17 2.053,3.115c0.313,0.39 0.64,0.793 0.994,1.27c0.893,1.2 1.4,1.878 2.37,3.036c0.454,0.54 0.84,0.95 1.21,1.346c0.402,0.428 0.783,0.833 1.25,1.396c0.166,0.2 0.317,0.373 0.46,0.535c0.35,0.396 0.626,0.71 0.94,1.238l0.08,0.135c0.433,0.72 0.693,1.155 0.844,1.98c0.164,0.896 0.144,1.43 -0.09,2.28c-0.194,0.7 -0.326,1.12 -0.807,1.62c-0.576,0.602 -1.074,0.85 -1.972,0.985c-0.29,0.043 -0.527,0.062 -0.746,0.062c-0.527,0 -0.977,-0.125 -1.5,-0.42c-0.59,-0.33 -0.88,-0.552 -1.155,-1.06c-0.267,-0.492 -0.265,-0.864 -0.262,-1.427l0,-0.186c0,-0.498 0.096,-0.828 0.215,-1.245c0.053,-0.184 0.107,-0.38 0.16,-0.605c0.158,-0.692 0.468,-1.775 0.47,-1.787l0.068,-0.24l-10.78,0l-0.05,0.116c-0.015,0.037 -0.382,0.926 -0.57,1.527c-0.226,0.707 -0.32,1.19 -0.44,1.804c-0.04,0.208 -0.083,0.428 -0.134,0.675c-0.09,0.43 -0.19,0.804 -0.282,1.155c-0.217,0.822 -0.405,1.532 -0.383,2.576c0.025,1.23 0.133,2.033 0.677,3.287c0.414,0.952 0.752,1.544 1.556,2.33c0.68,0.664 1.23,0.93 1.995,1.297l0.322,0.156c1.58,0.77 2.604,0.98 4.407,1.247c0.86,0.127 1.605,0.186 2.35,0.186c0.857,0 1.666,-0.074 2.805,-0.186c2.232,-0.22 3.508,-0.403 5.53,-1.146c1.506,-0.553 2.36,-0.98 3.82,-1.91c1.323,-0.843 2.126,-1.377 3.252,-2.584c1.128,-1.208 1.688,-2.037 2.398,-3.548c0.78,-1.66 1.014,-2.673 1.246,-4.31c0.305,-2.163 0.438,-3.385 -0.1,-5.373c-0.416,-1.528 -0.94,-2.315 -1.822,-3.647" fill="#FFF"/>
   <path id="svg_6" d="m178.225,10.67c-0.557,-0.63 -1.172,-0.74 -1.92,-0.82c-0.687,-0.075 -1.088,0.027 -1.766,0.194c-0.62,0.153 -0.962,0.27 -1.476,0.59c-0.437,0.276 -0.963,0.86 -0.985,0.886l-7.04,24.095c-0.016,0.052 -0.386,1.278 -0.09,2.018c0.258,0.646 0.66,0.95 1.226,1.233c0.356,0.178 0.688,0.253 1.11,0.253c0.168,0 0.34,-0.01 0.526,-0.023c0.11,-0.008 0.227,-0.016 0.395,-0.023c0.89,-0.04 1.53,-0.07 2.32,-0.597c0.57,-0.38 0.86,-0.694 1.196,-1.294c0.095,-0.172 0.128,-0.42 0.157,-0.64c0.01,-0.06 0.02,-0.144 0.032,-0.21l0.024,0c0.197,0 0.264,0 5.668,-19.723l0.842,-3.374c0.017,-0.04 0.43,-0.988 0.295,-1.628c-0.09,-0.43 -0.27,-0.66 -0.515,-0.938m32.204,1.706c-0.018,-0.11 -0.026,-0.217 -0.034,-0.32c-0.032,-0.367 -0.064,-0.715 -0.405,-1.022c-0.297,-0.267 -0.55,-0.352 -0.945,-0.424c-0.28,-0.052 -0.884,-0.006 -0.886,-0.004l-4.206,0l-3.163,10.16l-0.074,0.244l5.686,0l0.035,-0.014c0.037,-0.016 0.915,-0.378 1.377,-0.79c0.548,-0.49 0.742,-0.974 0.967,-1.534c0.065,-0.162 0.134,-0.334 0.216,-0.517c0.396,-0.883 0.543,-1.482 0.748,-2.31l0.115,-0.464c0.08,-0.323 0.177,-0.606 0.27,-0.88c0.23,-0.68 0.43,-1.267 0.298,-2.125" fill="#231F20"/>
   <path id="svg_7" d="m286.62,11.34c-0.264,-0.332 -0.536,-0.455 -0.853,-0.597c-0.08,-0.036 -0.162,-0.074 -0.252,-0.118c-0.534,-0.262 -1.248,-0.394 -2.124,-0.394c-1.463,0 -2.865,0.367 -2.924,0.383l-0.105,0.027l-4,13.912l-0.042,0.143l0.13,0.073c0.024,0.015 0.636,0.366 1.082,0.49c0.322,0.092 0.608,0.13 0.95,0.13c0.15,0 0.298,-0.006 0.462,-0.013c0.11,-0.006 0.224,-0.01 0.35,-0.014l0.186,-0.004c0.73,-0.02 1.21,-0.032 1.95,-0.29c1.086,-0.376 1.728,-0.864 2.457,-1.864c0.41,-0.565 0.555,-1.034 0.722,-1.577c0.07,-0.227 0.146,-0.47 0.247,-0.737c0.783,-2.073 1.607,-5.474 1.612,-5.498c0.014,-0.047 0.353,-1.17 0.385,-1.938c0.01,-0.19 0.033,-0.37 0.053,-0.542c0.068,-0.542 0.13,-1.054 -0.282,-1.57"/>
   <path id="svg_8" d="m0,0l387,0l0,57.708l-387,0l0,-57.708z" fill="none"/>
  </g>
 </g>
</svg>